<mxfile host="app.diagrams.net" modified="2024-06-07T09:26:02.513Z" agent="Mozilla/5.0 (Windows NT 10.0; Win64; x64) AppleWebKit/537.36 (KHTML, like Gecko) Chrome/125.0.0.0 Safari/537.36" version="24.5.1" etag="rsaizD7VyHSEcHGuIVdB" type="github">
  <diagram name="Page-1" id="FNM8gdRoJcoeqxdAwWSm">
    <mxGraphModel>
      <root>
        <mxCell id="0" />
        <mxCell id="1" parent="0" />
      </root>
    </mxGraphModel>
  </diagram>
</mxfile>
